<svg version="1.1" id="Layer_1" xmlns="http://www.w3.org/2000/svg" xmlns:xlink="http://www.w3.org/1999/xlink" x="0px" y="0px"
	 width="100%" viewBox="0 0 496 496" enable-background="new 0 0 496 496" xml:space="preserve">
<path fill="#FFFFFF" opacity="1.000000" stroke="none" 
	d="
M253.970856,476.231415 
	C229.756836,472.231201 205.974472,468.279053 182.194351,464.313446 
	C166.452545,461.688324 150.790451,458.354706 134.952988,456.596527 
	C118.175278,454.733978 115.222534,441.830170 118.424782,430.864441 
	C124.907227,408.666138 131.791718,386.584930 138.550735,364.467773 
	C145.213196,342.666534 151.858200,320.859467 158.678314,299.107422 
	C159.896713,295.221466 159.574799,291.636017 158.573090,287.865448 
	C140.468933,219.719894 122.396690,151.565872 104.317368,83.413712 
	C98.604012,61.876537 92.885002,40.340858 87.185165,18.800108 
	C86.726143,17.065388 86.396378,15.296464 86.029160,13.645139 
	C88.732231,12.035762 90.956886,13.219501 93.149918,13.754166 
	C129.081696,22.514404 165.004181,31.312733 200.930389,40.095818 
	C207.565048,41.717831 214.189636,43.387310 220.853134,44.882164 
	C223.857559,45.556164 225.303879,46.866909 225.414688,50.246891 
	C226.281906,76.704796 227.411682,103.154160 228.259964,129.612579 
	C228.385284,133.521317 229.436340,134.870041 233.513931,134.501633 
	C270.321289,131.176117 307.143982,128.020935 343.960754,124.799568 
	C361.708069,123.246727 379.453125,121.667358 397.197815,120.084602 
	C410.076599,118.935875 417.310059,126.324730 415.500305,138.806458 
	C409.397430,180.897064 403.367706,222.998428 397.172455,265.075409 
	C391.024963,306.827881 384.682190,348.551605 378.480896,390.296173 
	C374.721283,415.604126 371.046509,440.924744 367.373840,466.245514 
	C365.029388,482.409271 352.113983,492.152191 336.116455,489.579254 
	C308.870270,485.197144 281.640259,480.714264 253.970856,476.231415 
M230.193954,171.881500 
	C231.066650,197.155792 231.939362,222.430099 232.812057,247.704391 
	C233.286789,247.732285 233.761505,247.760193 234.236237,247.788086 
	C247.472519,232.742706 260.708801,217.697327 274.272034,202.280319 
	C275.628113,204.633408 275.262451,206.244858 275.014099,207.844986 
	C271.803467,228.530533 268.527740,249.206253 265.399200,269.904236 
	C261.178223,297.829926 257.111603,325.778931 252.898376,353.705811 
	C250.494232,369.641449 247.953888,385.556671 245.420914,401.472504 
	C244.827789,405.199402 245.976501,406.772491 250.024979,407.166962 
	C262.123749,408.345795 274.169067,410.061676 286.249146,411.446716 
	C302.960083,413.362793 319.665344,415.363922 336.410156,416.932526 
	C343.903625,417.634491 347.230316,414.889313 348.798370,407.593262 
	C350.122925,401.430176 350.977997,395.165466 352.013672,388.941193 
	C356.892609,359.619141 361.799957,330.301727 366.624603,300.970734 
	C371.503784,271.308258 376.273010,241.627686 381.139038,211.962997 
	C383.881561,195.243500 386.756775,178.545776 389.499939,161.826370 
	C390.456360,155.996750 388.195038,153.441925 382.211243,153.315247 
	C380.713684,153.283554 379.209137,153.329224 377.714783,153.436615 
	C360.784332,154.653259 343.859222,155.947113 326.924896,157.106537 
	C297.041992,159.152496 267.158691,161.199783 237.264328,163.066879 
	C229.146271,163.573914 229.533981,163.121384 230.193954,171.881500 
M233.707413,399.375458 
	C241.762756,346.492828 249.818100,293.610199 257.873444,240.727554 
	C257.554779,240.636932 257.236084,240.546310 256.917419,240.455704 
	C245.788864,253.019958 234.660309,265.584229 223.276001,278.437256 
	C221.609192,276.269592 221.799240,274.753143 221.743057,273.298706 
	C221.132996,257.506714 220.514297,241.715103 219.916031,225.922699 
	C218.908386,199.323608 217.913666,172.724014 216.913803,146.124634 
	C215.870071,118.358246 214.617264,90.596817 213.955963,62.821320 
	C213.820160,57.116863 211.840118,55.277451 206.651886,54.042850 
	C175.755051,46.690620 144.954453,38.934803 114.085121,31.464996 
	C110.365486,30.564913 106.695122,28.743103 102.307831,29.401566 
	C129.084244,130.316788 155.759628,230.851227 182.606079,332.030396 
	C194.139572,323.176849 203.455338,313.645538 215.256699,305.133301 
	C220.819672,339.983704 226.207916,373.739471 231.596161,407.495270 
	C231.851517,407.480347 232.106873,407.465424 232.362228,407.450500 
	C232.792236,405.043274 233.222244,402.636047 233.707413,399.375458 
M188.619949,400.045898 
	C197.045639,401.010620 205.467560,402.010345 213.898972,402.922058 
	C217.090698,403.267212 218.713776,402.658295 218.018051,398.521057 
	C214.965912,380.370728 212.488678,362.123566 209.418579,343.976532 
	C208.567459,338.945496 208.703552,333.541656 206.020752,328.426300 
	C196.005356,336.938049 186.479645,345.033630 176.217865,353.754761 
	C173.747253,345.130554 171.621964,337.711731 169.146988,329.072296 
	C168.268219,331.612854 167.751083,332.932892 167.352188,334.287720 
	C162.331314,351.341431 157.299881,368.392059 152.331955,385.461212 
	C150.116150,393.074432 152.007446,395.814667 160.028397,396.769958 
	C169.279190,397.871643 178.537201,398.912842 188.619949,400.045898 
M326.522614,472.216034 
	C315.312958,471.334808 304.089294,471.152557 292.854370,471.332001 
	C306.173920,473.458435 319.500854,475.326019 332.832672,477.158325 
	C345.720642,478.929626 355.353119,471.898254 357.651093,459.086456 
	C359.175232,450.588898 360.718536,442.094696 362.227631,433.594452 
	C364.736633,419.462158 367.224976,405.326172 369.722015,391.191772 
	C364.115845,411.389587 358.968292,431.677979 353.799408,451.960907 
	C349.976196,466.963440 343.002136,472.320251 326.522614,472.216034 
M313.710907,139.314362 
	C304.422760,140.016647 295.095703,140.404343 285.861786,141.545517 
	C280.759277,142.176117 275.481262,141.511078 270.544403,143.372070 
	C268.488708,144.147003 267.017853,145.624786 267.649902,147.939941 
	C268.222961,150.038940 270.173492,149.639542 271.850037,149.519302 
	C289.115326,148.281143 306.381470,147.054794 323.648193,145.836609 
	C325.645111,145.695740 327.661224,145.666687 329.485321,144.696762 
	C331.168701,143.801651 332.801361,142.626221 332.464203,140.522644 
	C332.077057,138.106934 329.914032,138.188782 328.083679,138.298019 
	C323.600220,138.565582 319.124115,138.956985 313.710907,139.314362 
M246.688828,442.364349 
	C247.347473,438.952698 248.233566,435.564697 248.592026,432.121796 
	C248.873108,429.421906 247.151566,427.815735 244.481903,427.396118 
	C241.492599,426.926300 241.459061,429.062866 241.149063,431.119659 
	C240.062119,438.331024 238.878311,445.527740 237.739822,452.731354 
	C237.437866,454.641876 236.682190,456.612579 238.396393,458.455536 
	C242.122574,458.444122 243.537842,455.866608 244.363953,452.892975 
	C245.250412,449.702179 245.843399,446.429840 246.688828,442.364349 
M217.080780,453.486328 
	C219.323578,456.774414 222.656052,456.412231 226.616776,456.384125 
	C226.425400,447.098877 224.351654,438.432037 222.153122,429.691864 
	C220.248459,437.450409 217.031769,444.792053 217.080780,453.486328 
M245.667679,143.253601 
	C247.268951,143.004639 248.870224,142.755676 250.471497,142.506714 
	C243.772629,142.510986 236.998917,141.640549 230.676315,145.034424 
	C235.401245,144.500229 240.126175,143.966019 245.667679,143.253601 
z"/>
<path fill="#000000" opacity="1.000000" stroke="none" 
	d="
M354.717102,271.970093 
	C357.401855,249.607178 360.043884,227.691498 362.738922,205.782318 
	C363.894012,196.391830 365.095734,187.006058 366.399658,177.635300 
	C367.114014,172.501724 366.238098,171.044128 360.836212,170.516968 
	C351.736206,169.628891 342.614807,168.954865 333.497864,168.249130 
	C330.912109,168.048950 328.321106,168.015671 325.969055,166.360580 
	C327.397552,164.379822 329.223022,164.924332 330.744476,164.960754 
	C342.583069,165.244202 354.354248,163.921249 366.165070,163.565414 
	C373.002319,163.359421 376.219635,166.568146 375.152771,173.302444 
	C373.100037,186.259567 370.834381,199.182816 368.743469,212.134079 
	C364.218018,240.165512 359.735016,268.203796 355.258942,296.243164 
	C352.877838,311.159180 350.563934,326.085938 348.167786,340.999512 
	C347.938263,342.428070 347.338806,343.797180 345.802856,345.008118 
	C348.767181,320.812042 351.731506,296.615997 354.717102,271.970093 
z"/>
</svg>